<svg width="59" height="53" viewBox="0 0 59 53" fill="none" xmlns="http://www.w3.org/2000/svg">
<path d="M35 9.32187C41.4125 9.32187 42.1719 9.35 44.6938 9.4625C47.0375 9.56562 48.3031 9.95938 49.1469 10.2875C50.2625 10.7188 51.0688 11.2438 51.9031 12.0781C52.7469 12.9219 53.2625 13.7188 53.6938 14.8344C54.0219 15.6781 54.4156 16.9531 54.5188 19.2875C54.6313 21.8187 54.6594 22.5781 54.6594 28.9813C54.6594 35.3938 54.6313 36.1531 54.5188 38.675C54.4156 41.0188 54.0219 42.2844 53.6938 43.1281C53.2625 44.2438 52.7375 45.05 51.9031 45.8844C51.0594 46.7281 50.2625 47.2438 49.1469 47.675C48.3031 48.0031 47.0281 48.3969 44.6938 48.5C42.1625 48.6125 41.4031 48.6406 35 48.6406C28.5875 48.6406 27.8281 48.6125 25.3063 48.5C22.9625 48.3969 21.6969 48.0031 20.8531 47.675C19.7375 47.2438 18.9313 46.7188 18.0969 45.8844C17.2531 45.0406 16.7375 44.2438 16.3063 43.1281C15.9781 42.2844 15.5844 41.0094 15.4813 38.675C15.3688 36.1438 15.3406 35.3844 15.3406 28.9813C15.3406 22.5688 15.3688 21.8094 15.4813 19.2875C15.5844 16.9437 15.9781 15.6781 16.3063 14.8344C16.7375 13.7188 17.2625 12.9125 18.0969 12.0781C18.9406 11.2344 19.7375 10.7188 20.8531 10.2875C21.6969 9.95938 22.9719 9.56562 25.3063 9.4625C27.8281 9.35 28.5875 9.32187 35 9.32187ZM35 5C28.4844 5 27.6688 5.02812 25.1094 5.14062C22.5594 5.25313 20.8063 5.66562 19.2875 6.25625C17.7031 6.875 16.3625 7.69062 15.0313 9.03125C13.6906 10.3625 12.875 11.7031 12.2563 13.2781C11.6656 14.8063 11.2531 16.55 11.1406 19.1C11.0281 21.6687 11 22.4844 11 29C11 35.5156 11.0281 36.3313 11.1406 38.8906C11.2531 41.4406 11.6656 43.1938 12.2563 44.7125C12.875 46.2969 13.6906 47.6375 15.0313 48.9688C16.3625 50.3 17.7031 51.125 19.2781 51.7344C20.8063 52.325 22.55 52.7375 25.1 52.85C27.6594 52.9625 28.475 52.9906 34.9906 52.9906C41.5063 52.9906 42.3219 52.9625 44.8813 52.85C47.4313 52.7375 49.1844 52.325 50.7031 51.7344C52.2781 51.125 53.6188 50.3 54.95 48.9688C56.2813 47.6375 57.1063 46.2969 57.7156 44.7219C58.3063 43.1938 58.7188 41.45 58.8313 38.9C58.9438 36.3406 58.9719 35.525 58.9719 29.0094C58.9719 22.4938 58.9438 21.6781 58.8313 19.1188C58.7188 16.5688 58.3063 14.8156 57.7156 13.2969C57.125 11.7031 56.3094 10.3625 54.9688 9.03125C53.6375 7.7 52.2969 6.875 50.7219 6.26562C49.1938 5.675 47.45 5.2625 44.9 5.15C42.3313 5.02813 41.5156 5 35 5Z" fill="#CEA56A"/>
<path d="M35 16.6719C28.1938 16.6719 22.6719 22.1938 22.6719 29C22.6719 35.8062 28.1938 41.3281 35 41.3281C41.8062 41.3281 47.3281 35.8062 47.3281 29C47.3281 22.1938 41.8062 16.6719 35 16.6719ZM35 36.9969C30.5844 36.9969 27.0031 33.4156 27.0031 29C27.0031 24.5844 30.5844 21.0031 35 21.0031C39.4156 21.0031 42.9969 24.5844 42.9969 29C42.9969 33.4156 39.4156 36.9969 35 36.9969Z" fill="#CEA56A"/>
<path d="M50.6937 16.1843C50.6937 17.778 49.4 19.0624 47.8156 19.0624C46.2219 19.0624 44.9375 17.7687 44.9375 16.1843C44.9375 14.5905 46.2313 13.3062 47.8156 13.3062C49.4 13.3062 50.6937 14.5999 50.6937 16.1843Z" fill="#CEA56A"/>
<path d="M3.23651 9.54545L3.26136 7.09446L1.14844 8.3473L0.879972 7.87997L3.0277 6.68182L0.879972 5.48366L1.14844 5.01633L3.26136 6.26918L3.23651 3.81818H3.76349L3.73864 6.26918L5.85156 5.01633L6.12003 5.48366L3.9723 6.68182L6.12003 7.87997L5.85156 8.3473L3.73864 7.09446L3.76349 9.54545H3.23651Z" fill="white"/>
</svg>
