<svg width="80" height="80" viewBox="0 0 80 80" fill="none" xmlns="http://www.w3.org/2000/svg">
<path d="M80 0H78.2207C74.7648 2.53208 63.8837 10.4705 61.4884 12.3524C58.6484 14.6108 56.9033 13.6527 55.7742 12.7973C54.645 11.9418 53.9606 9.5124 53.9606 9.5124L54.4055 0H0V76.8178C1.71086 75.8255 3.11378 75.0043 3.3533 74.9358C4.03764 74.7647 4.99572 75.9623 5.78272 76.4072C6.56972 76.852 7.42515 77.0915 6.98032 77.9812C6.84345 78.2891 6.22755 79.0761 5.50898 79.9658H20.0171H49.5808H59.8802C60.4619 78.4602 61.0436 76.9204 61.3858 76.065C62.207 73.8751 66.3131 75.0727 68.5372 74.9358C70.1112 74.8332 70.7613 77.7759 71.1035 80H79.9658M3.55859 70.5902C3.35329 70.4534 3.21643 70.2481 3.14799 70.0086L2.15569 66.5868C2.05304 66.2104 2.15569 65.7998 2.46365 65.5261L4.72199 63.5757C4.82464 63.473 4.96151 63.5415 4.99572 63.6784L5.9196 71.7878L3.55859 70.5902ZM17.793 13.55C17.6903 14.8503 14.0633 17.5192 14.0633 17.5192C14.0633 17.5192 13.0368 18.1352 9.99145 16.9033C6.98033 15.7057 2.22412 13.55 2.22412 13.55C2.22412 13.55 4.48247 11.3944 7.04876 9.75192C9.64927 8.10949 11.2917 5.61163 11.6339 5.44055C11.976 5.26946 14.9187 4.41403 15.432 5.44055C15.9795 6.46706 17.8956 12.2498 17.793 13.55ZM38.1865 65.6972L31.4457 71.9247C31.4457 71.9247 28.9478 70.556 27.5107 69.8375C26.0736 69.1189 22.5834 68.6056 22.5834 68.6056L23.8152 64.6022C23.8152 64.6022 26.1078 64.3285 27.1685 63.8152C28.2293 63.302 30.3165 61.0094 31.4457 59.4354C32.5748 57.8614 34.3541 58.2378 34.3541 58.2378C34.3541 58.2378 37.2284 60.941 38.2207 62.5834C39.1788 64.1916 38.1865 65.6972 38.1865 65.6972ZM39.8289 15.6031L41.1976 16.1163L44.8246 20.7699L42.2241 21.2147C42.2241 21.2147 41.7793 20.5988 40.5133 18.4431C39.213 16.3216 39.8289 15.6031 39.8289 15.6031ZM43.1822 74.9358C41.5398 74.2857 42.2241 72.5748 42.2241 72.5748C42.2241 72.5748 44.7904 71.343 45.6116 72.5748C46.4328 73.8067 44.8246 75.586 43.1822 74.9358ZM65.047 63.9863C63.8494 66.142 62.0359 74.9358 62.0359 74.9358C62.0359 74.9358 58.1352 74.8674 56.2532 73.225C54.337 71.5825 53.1394 70.3849 53.1394 70.3849C53.1394 70.3849 55.3978 65.9709 57.4508 62.6176C59.5381 59.2643 60.7357 56.0479 60.7357 56.0479L65.047 60.3593C65.047 60.3593 66.2447 61.8306 65.047 63.9863ZM75.8255 21.2489C74.3541 22.3781 72.0274 21.9333 72.0274 21.9333C72.0274 21.9333 70.556 20.0171 69.4269 17.6903C68.2977 15.3293 67.2712 12.3524 67.2712 12.3524L69.4269 11.7707L76.8862 18.4431C76.852 18.4089 77.2968 20.1198 75.8255 21.2489Z" fill="#1D1D1B"/>
<path d="M4.92969 36.8535H10.4045V38.0511H8.38563V42.0888H6.94852V38.0511H4.92969V36.8535Z" fill="white"/>
<path d="M16.0873 36.854V37.9832H12.734V38.8386H15.9846V40.002H12.734V40.8917H16.1215V42.0551H11.2969V36.8198H16.0873V36.854Z" fill="white"/>
<path d="M18.6832 40.3784V42.0551H17.2461V36.8198H20.7705C22.4129 36.8198 22.9262 37.5384 22.9262 38.5649V38.6333C22.9262 39.6256 22.4129 40.3784 20.7705 40.3784H18.6832ZM18.6832 39.215H20.6678C21.1811 39.215 21.4206 38.9755 21.4206 38.6333V38.5991C21.4206 38.2227 21.1811 38.0174 20.6678 38.0174H18.6832V39.215Z" fill="white"/>
<path d="M25.2887 40.3784V42.0551H23.8516V36.8198H27.3759C29.0184 36.8198 29.5316 37.5384 29.5316 38.5649V38.6333C29.5316 39.6256 29.0184 40.3784 27.3759 40.3784H25.2887ZM25.2887 39.215H27.2733C27.7865 39.215 28.0261 38.9755 28.0261 38.6333V38.5991C28.0261 38.2227 27.7865 38.0174 27.2733 38.0174H25.2887V39.215Z" fill="white"/>
<path d="M34.22 41.097H31.4141L31.0035 42.0551H29.5664L31.8932 36.8198H33.8436L36.273 42.0551H34.7332L34.22 41.097ZM33.7409 40.0362L32.7828 37.9148L31.859 40.0362H33.7409Z" fill="white"/>
<path d="M41.8149 42.0551H36.9219V36.8198H38.359V40.8917H40.8911V36.8198H42.3282V40.8917H43.1836V42.9105H41.8149V42.0551Z" fill="white"/>
<path d="M48.8628 42.0551H44.0039V36.8198H45.441V40.8917H47.9731V36.8198H49.4102V40.8917H50.2657V42.9105H48.897V42.0551H48.8628Z" fill="white"/>
<path d="M54.2372 36.751C56.6666 36.751 57.3852 38.1881 57.3852 39.3173V39.5226C57.3852 40.6517 56.7009 42.1231 54.2372 42.1231H53.9292C51.4998 42.1231 50.7812 40.6517 50.7812 39.5226V39.3173C50.7812 38.1881 51.4656 36.751 53.9292 36.751H54.2372ZM54.0661 37.9486C52.5948 37.9486 52.2868 38.7356 52.2868 39.3857V39.4884C52.2868 40.1043 52.629 40.9597 54.0661 40.9597C55.5375 40.9597 55.8454 40.1385 55.8454 39.4884V39.3857C55.8454 38.7356 55.5375 37.9486 54.0661 37.9486Z" fill="white"/>
<path d="M59.7128 42.0547H58.0703V40.686H59.7128V42.0547Z" fill="white"/>
<path d="M62.277 40.3784V42.0551H60.8398V36.8198H64.3642C66.0066 36.8198 66.5199 37.5384 66.5199 38.5649V38.6333C66.5199 39.6256 66.0066 40.3784 64.3642 40.3784H62.277ZM62.277 39.215H64.2616C64.7748 39.215 65.0144 38.9755 65.0144 38.6333V38.5991C65.0144 38.2227 64.7748 38.0174 64.2616 38.0174H62.277V39.215Z" fill="white"/>
<path d="M70.6288 36.7847H72.0659V37.3321H73.024C74.3927 37.3321 75.4876 37.8796 75.4876 39.351V39.4194C75.4876 40.8907 74.3927 41.5409 73.024 41.5409H72.0659V42.1568H70.6288V41.5409H69.6707C68.2678 41.5409 67.207 40.8907 67.207 39.4194V39.351C67.207 37.8796 68.2678 37.3321 69.6707 37.3321H70.6288V36.7847ZM69.9786 38.4613C69.1916 38.4613 68.7126 38.7351 68.7126 39.351V39.4194C68.7126 40.138 69.1574 40.4117 69.9786 40.4117H70.6288V38.4613H69.9786ZM72.0659 40.3775H72.716C73.503 40.3775 73.982 40.1037 73.982 39.3852V39.3167C73.982 38.7008 73.503 38.4271 72.716 38.4271H72.0659V40.3775Z" fill="white"/>
</svg>
