<svg width="22" height="24" viewBox="0 0 22 24" fill="none" xmlns="http://www.w3.org/2000/svg">
<path d="M11.4023 22.4717L11.855 23.3634L11.8551 23.3634L11.4023 22.4717ZM10.5973 22.4717L10.1446 23.3634L10.1446 23.3634L10.5973 22.4717ZM19.3332 10.6673C19.3332 13.7175 17.7437 16.2008 15.8362 18.0828C13.931 19.9627 11.8001 21.1483 10.9496 21.5801L11.8551 23.3634C12.7935 22.8869 15.128 21.5912 17.241 19.5064C19.3517 17.4238 21.3332 14.4589 21.3332 10.6673H19.3332ZM10.9998 2.33398C15.6022 2.33398 19.3332 6.06494 19.3332 10.6673H21.3332C21.3332 4.96037 16.7068 0.333984 10.9998 0.333984V2.33398ZM2.6665 10.6673C2.6665 6.06494 6.39746 2.33398 10.9998 2.33398V0.333984C5.29289 0.333984 0.666504 4.96037 0.666504 10.6673H2.6665ZM11.05 21.5801C10.1996 21.1483 8.06868 19.9627 6.16343 18.0828C4.25602 16.2008 2.6665 13.7175 2.6665 10.6673H0.666504C0.666504 14.4589 2.64794 17.4238 4.75872 19.5064C6.87165 21.5912 9.20613 22.8869 10.1446 23.3634L11.05 21.5801ZM10.9497 21.5801C10.9802 21.5646 11.0195 21.5646 11.05 21.5801L10.1446 23.3634C10.6831 23.6368 11.3165 23.6368 11.855 23.3634L10.9497 21.5801ZM14 10.668C14 12.3248 12.6569 13.668 11 13.668V15.668C13.7614 15.668 16 13.4294 16 10.668H14ZM11 7.66797C12.6569 7.66797 14 9.01111 14 10.668H16C16 7.90654 13.7614 5.66797 11 5.66797V7.66797ZM8 10.668C8 9.01111 9.34315 7.66797 11 7.66797V5.66797C8.23858 5.66797 6 7.90654 6 10.668H8ZM11 13.668C9.34315 13.668 8 12.3248 8 10.668H6C6 13.4294 8.23858 15.668 11 15.668V13.668Z" fill="#CEA56A"/>
</svg>
