<svg width="49" height="48" viewBox="0 0 49 48" fill="none" xmlns="http://www.w3.org/2000/svg">
<path d="M46.3672 13.8098C45.1476 11.1148 43.3968 8.69508 41.1738 6.60984C38.9509 4.54426 36.3738 2.91148 33.5017 1.77049C30.5312 0.590164 27.3836 0 24.1377 0C20.8918 0 17.7443 0.590164 14.7738 1.77049C11.9017 2.91148 9.32461 4.52459 7.10166 6.60984C4.87871 8.69508 3.12791 11.1148 1.90824 13.8098C0.649219 16.6033 0 19.5934 0 22.6623C0 28.0328 2.00654 33.1869 5.68523 37.2787L3.71801 48L14.1836 43.3377C17.3115 44.6754 20.6361 45.3443 24.1181 45.3443C27.364 45.3443 30.5115 44.7541 33.482 43.5738C36.3541 42.4328 38.9312 40.8197 41.1541 38.7344C43.3771 36.6492 45.1279 34.2295 46.3476 31.5344C47.6066 28.741 48.2558 25.7508 48.2558 22.682C48.2755 19.5934 47.6263 16.623 46.3672 13.8098Z" fill="#CEA56A"/>
<path d="M33.9345 27.1866C32.9115 26.6751 32.1641 26.3604 31.6329 26.1637C31.2985 26.0456 30.5116 25.6915 30.2362 25.9079C29.3706 26.6161 28.446 28.6227 27.4624 28.9965C25.023 28.5243 22.7608 26.8522 20.9903 25.1407C20.2034 24.3932 18.7476 22.2686 18.4329 21.6981C18.3739 21.1079 19.4361 20.321 19.6722 19.8686C20.8919 18.4915 19.9673 17.626 19.8099 17.0555C19.5345 16.4653 19.0624 15.403 18.6493 14.5374C18.2952 13.9669 18.2164 13.121 17.5869 12.8063C14.9115 11.4292 13.3772 14.1833 12.7477 15.6194C8.95094 24.7669 31.7706 42.1768 36.4132 30.1768C36.6493 29.1342 36.5509 28.7407 36.1968 28.2686C35.4886 27.7768 34.6624 27.5604 33.9345 27.1866Z" fill="black"/>
</svg>
